<svg version="1.1" class="bg-blue-950 rounded-full" id="transring" xmlns="http://www.w3.org/2000/svg"
    xmlns:xlink="http://www.w3.org/1999/xlink" x="0px" y="0px" viewBox="0 0 414 414"
    style="enable-background:new 0 0 414 414; " xml:space="preserve">

    <path id="Transparent_Ring" class="transrg"
        style="opacity:0.4;fill:none;stroke:#FFFFFF;stroke-width:2;stroke-miterlimit:10;enable-background:new"
        d="M84.2,85c31.3-31.5,74.7-51,122.7-51c95.5,0,173,77.5,173,173s-77.5,173-173,173c-47.8,0-91-19.4-122.3-50.7"></path>

    <path id="Opaque_Ring" class="transrgwht" stroke-dasharray="0,1000"
        style="fill:none;stroke:rgb(255, 255, 255);stroke-width:2;stroke-miterlimit:10;stroke-dasharray:10,1000;"
        d="M84.2,85c31.3-31.5,74.7-51,122.7-51c95.5,0,173,77.5,173,173s-77.5,173-173,173c-47.8,0-91-19.4-122.3-50.7"></path>

    <g id="Dots1" class="dots-nav">
        <g>
            <circle class="dotsst dotsfill1" style="fill:white;opacity:1;" cx="84" cy="85" r="6"></circle>
        </g>
        <g>
            <circle class="dotsstro1"
                style="opacity:1;fill:none;stroke:rgb(255, 255, 255);stroke-width:2;stroke-miterlimit:10;" cx="84" cy="85" r="6"></circle>
        </g>
    </g>

    <g id="Dots2" class="dots-nav">
        <g>
            <circle class="dotsst dotsfill2" style="fill:white;opacity:1;" cx="206.8" cy="34" r="6"></circle>
        </g>
        <g>
            <circle class="dotsstro2"
                style="opacity:1;fill:none;stroke:rgb(255, 255, 255);stroke-width:2;stroke-miterlimit:10;" cx="206.8" cy="34" r="6"></circle>
        </g>
    </g>

    <g id="Dots3" class="dots-nav">
        <g>
            <circle class="dotsst dotsfill3" style="fill:white;opacity:1;" cx="332" cy="85" r="6"></circle>
        </g>
        <g>
            <circle class="dotsstro3"
                style="opacity:1;fill:none;stroke:rgb(255, 255, 255);stroke-width:2;stroke-miterlimit:10;" cx="332" cy="85" r="6"></circle>
        </g>
    </g>

    <g id="Dots4" class="dots-nav">
        <g>
            <circle class="dotsst dotsfill4" style="fill:white;opacity:1;" cx="380" cy="205" r="6"></circle>
        </g>
        <g>
            <circle class="dotsstro4"
                style="opacity:1;fill:none;stroke:rgb(255, 255, 255);stroke-width:2;stroke-miterlimit:10;" cx="380" cy="205" r="6"></circle>
        </g>
    </g>

    <g id="Dots5" class="dots-nav">
        <g>
            <circle class="dotsst dotsfill5" style="fill:white;opacity:1;" cx="335" cy="324" r="6"></circle>
        </g>
        <g>
            <circle class="dotsstro5"
                style="opacity:1;fill:none;stroke:rgb(255, 255, 255);stroke-width:2;stroke-miterlimit:10;" cx="335" cy="324" r="6"></circle>
        </g>
    </g>

    <g id="Dots6" class="dots-nav">
        <g>
            <circle class="dotsst dotsfill6" style="fill:white;opacity:1;" cx="210" cy="380" r="6"></circle>
        </g>
        <g>
            <circle class="dotsstro6"
                style="opacity:1;fill:none;stroke:rgb(255, 255, 255);stroke-width:2;stroke-miterlimit:10;" cx="210" cy="380" r="6"></circle>
        </g>
    </g>

    <g id="Dots7" class="dots-nav">
        <g>
            <circle class="dotsst dotsfill7" style="fill:white;opacity:1;" cx="88" cy="329" r="6"></circle>
        </g>
        <g>
            <circle class="dotsstro7"
                style="opacity:1;fill:none;stroke:rgb(255, 255, 255);stroke-width:2;stroke-miterlimit:10;" cx="88" cy="329" r="6"></circle>
        </g>
    </g>

</svg>
